/* XPM */
static char *_0[] = {
/* columns rows colors chars-per-pixel */
"64 64 256 2 ",
"   c black",
".  c #1C1408",
"X  c #140C04",
"o  c #494949",
"O  c white",
"+  c #181818",
"@  c #101010",
"#  c gray3",
"$  c #040404",
"%  c #2C341C",
"&  c #20280C",
"*  c #141C04",
"=  c #0C1400",
"-  c #4D3828",
";  c #453020",
":  c #3C2818",
">  c #FFB6B6",
",  c #F7AAAA",
"<  c #F3A2A2",
"1  c #EB9696",
"2  c #E78E8E",
"3  c #DF8686",
"4  c #DB7979",
"5  c #D37171",
"6  c #CB6969",
"7  c #C76161",
"8  c #BE5959",
"9  c #BA5555",
"0  c #B24D4D",
"q  c #AE4545",
"w  c #A63C3C",
"e  c #A23838",
"r  c #9A3030",
"t  c #962C2C",
"y  c #8E2828",
"u  c #8A2020",
"i  c #821C1C",
"p  c #7D1818",
"a  c #751414",
"s  c #711010",
"d  c #690C0C",
"f  c #650808",
"g  c #5D0404",
"h  c #590404",
"j  c #510404",
"k  c #4D0000",
"l  c #450000",
"z  c #410000",
"x  c #FFEBDF",
"c  c #FFE3D3",
"v  c #FFDBC7",
"b  c #FFD3BA",
"n  c #FFCFB2",
"m  c #FFC7A6",
"M  c #FFBE9A",
"N  c #FFBA92",
"B  c #FFB282",
"V  c #F7AA79",
"C  c #EFA271",
"Z  c #E79A69",
"A  c #DF9261",
"S  c #D78A59",
"D  c #CF8251",
"F  c #CB7D4D",
"G  c #BE7949",
"H  c #B27145",
"J  c #AA6D41",
"K  c #A2693C",
"L  c #9A6138",
"P  c #8E5D34",
"I  c #865530",
"U  c #7D512C",
"Y  c #754D28",
"T  c #694524",
"R  c #5D4120",
"E  c #513C1C",
"W  c #493418",
"Q  c #3C2C14",
"!  c #302810",
"~  c #28200C",
"^  c #EFEFEF",
"/  c #E7E7E7",
"(  c #DFDFDF",
")  c gray86",
"_  c LightGray",
"`  c #CBCBCB",
"'  c gray78",
"]  c gray",
"[  c #B6B6B6",
"{  c #B2B2B2",
"}  c #AAAAAA",
"|  c gray65",
" . c gray62",
".. c gray59",
"X. c #929292",
"o. c gray54",
"O. c gray51",
"+. c gray49",
"@. c gray46",
"#. c #6D6D6D",
"$. c DimGray",
"%. c gray38",
"&. c gray35",
"*. c #555555",
"=. c gray30",
"-. c gray27",
";. c #414141",
":. c gray22",
">. c #343434",
",. c #2C2C2C",
"<. c gray14",
"1. c #202020",
"2. c #75FF6D",
"3. c #6DEF65",
"4. c #65DF5D",
"5. c #5DCF55",
"6. c #59BE4D",
"7. c #51AE45",
"8. c #499E3C",
"9. c #419234",
"0. c #3C822C",
"q. c #347128",
"w. c #2C6120",
"e. c #245118",
"r. c #1C4114",
"t. c #14300C",
"y. c #102008",
"u. c #081404",
"i. c #BEA68E",
"p. c #B69E86",
"a. c #AE967D",
"s. c #A68E75",
"d. c #9E866D",
"f. c #9A7D69",
"g. c #927961",
"h. c #8A7159",
"j. c #826955",
"k. c #79614D",
"l. c #755D49",
"z. c #6D5541",
"x. c #65513C",
"c. c #5D4934",
"v. c #554130",
"b. c #513C2C",
"n. c #9E8261",
"m. c #8E7551",
"M. c #826949",
"N. c #755D3C",
"B. c #655130",
"V. c #594528",
"C. c #4D3820",
"Z. c #413018",
"A. c #797D61",
"S. c #6D7155",
"D. c #65694D",
"F. c #596145",
"G. c #515538",
"H. c #454D30",
"J. c #3C4528",
"K. c #343C24",
"L. c #FFFF71",
"P. c #EBDB55",
"I. c #D7BA41",
"U. c #C39A2C",
"Y. c #AE791C",
"T. c #9A5910",
"R. c #864104",
"E. c #712800",
"W. c white",
"Q. c #FFDBDB",
"!. c #FFBABA",
"~. c #FF9A9A",
"^. c #FF7979",
"/. c #FF5D5D",
"(. c #FF3C3C",
"). c #FF1C1C",
"_. c red",
"`. c #EF0000",
"'. c #E30000",
"]. c #D70000",
"[. c #CB0000",
"{. c #BE0000",
"}. c #B20000",
"|. c #A60000",
" X c #9A0000",
".X c #8A0000",
"XX c #7D0000",
"oX c #710000",
"OX c #650000",
"+X c #590000",
"@X c #4D0000",
"#X c #410000",
"$X c #E7E7FF",
"%X c #C7C7FF",
"&X c #AAAAFF",
"*X c #8E8EFF",
"=X c #7171FF",
"-X c #5151FF",
";X c #3434FF",
":X c #1818FF",
">X c blue",
",X c #0000E3",
"<X c #0000CB",
"1X c #0000B2",
"2X c #00009A",
"3X c #000082",
"4X c #000069",
"5X c #000051",
"6X c white",
"7X c #FFEBDB",
"8X c #FFD7BA",
"9X c #FFC79A",
"0X c #FFB279",
"qX c #FFA259",
"wX c #FF8E38",
"eX c #FF7D18",
"rX c #F37114",
"tX c #EB6D0C",
"yX c #DF650C",
"uX c #D75D08",
"iX c #CB5504",
"pX c #C34D00",
"aX c #B64500",
"sX c #AE4100",
"dX c white",
"fX c #FFFFD7",
"gX c #FFFFB2",
"hX c #FFFF8E",
"jX c #FFFF69",
"kX c #FFFF45",
"lX c #FFFF20",
"zX c yellow",
"xX c #A63C00",
"cX c #9E3400",
"vX c #922C00",
"bX c #862000",
"nX c #4D3824",
"mX c #412C18",
"MX c #342010",
"NX c #2C1808",
"BX c #000051",
"VX c #000045",
"CX c #000038",
"ZX c #00002C",
"AX c #000020",
"SX c #000014",
"DX c #000008",
"FX c black",
"GX c #FF9E41",
"HX c #FFE749",
"JX c #FF79FF",
"KX c magenta",
"LX c #CF00CF",
"PX c #9E009A",
"IX c #6D0069",
"UX c magenta",
/* pixels */
"w.e.q.w.w.w.w.e.q.q.e.w.e.e.q.q.w.w.e.e.q.w.e.U.U.e.w.w.q.e.w.w.q.q.e.w.e.e.e.w.q.w.w.q.e.e.w.e.w.w.w.q.e.w.e.U.U.e.w.w.e.w.e.w.",
"e.U.U.U.U.U.U.e.e.U.U.U.U.U.U.e.e.w.e.e.e.e.U.Y.U.U.e.e.e.e.w.q.e.U.U.U.U.U.U.e.e.U.U.U.U.U.U.e.e.e.w.e.e.e.U.Y.U.U.e.e.e.w.e.q.",
"q.U.Y.Y.Y.Y.Y.w.e.Y.Y.Y.Y.Y.U.w.e.e.w.w.e.U.U.Y.Y.U.U.w.e.w.e.w.e.U.Y.Y.Y.Y.Y.w.e.Y.Y.Y.Y.Y.U.e.e.e.q.e.e.U.U.Y.Y.U.U.e.e.w.e.e.",
"e.U.Y.w.e.e.e.e.w.e.w.w.e.Y.U.w.e.w.q.q.w.U.Y.Y.Y.Y.U.e.e.w.e.e.e.U.Y.e.w.e.e.w.e.e.e.e.e.Y.U.e.w.e.e.w.w.U.Y.Y.Y.Y.U.w.w.e.w.w.",
"w.U.Y.w.w.w.e.w.q.w.w.w.e.Y.U.e.w.e.w.e.e.e.w.Y.T.e.e.w.w.w.e.w.e.U.Y.e.e.e.e.w.e.e.e.w.e.Y.U.e.w.e.e.e.e.e.e.Y.T.e.e.e.w.e.e.e.",
"w.U.Y.e.e.q.w.w.e.w.w.w.w.Y.U.e.q.e.U.U.U.e.w.Y.T.w.e.U.U.U.e.e.w.U.Y.e.w.q.e.e.e.w.w.e.e.Y.U.e.e.e.U.U.U.e.q.Y.T.w.e.U.U.U.e.w.",
"e.U.Y.e.w.e.e.e.e.w.e.e.e.Y.U.e.w.U.U.Y.U.U.e.Y.T.e.U.U.Y.U.U.w.e.U.Y.e.e.e.e.e.w.e.e.e.e.Y.U.e.w.U.U.Y.U.U.e.Y.T.e.U.U.Y.U.U.w.",
"e.e.e.e.e.e.e.w.w.e.e.w.e.e.e.w.e.U.Y.Y.Y.Y.U.e.e.U.Y.Y.Y.Y.U.w.e.w.e.e.e.w.e.e.e.q.e.e.e.e.e.w.e.U.Y.Y.Y.Y.U.e.e.U.Y.Y.Y.Y.U.w.",
"w.e.w.w.e.w.e.e.e.w.e.q.w.e.e.e.e.T.T.Y.T.e.Y.e.q.Y.e.T.Y.T.T.w.e.e.e.w.e.w.e.w.w.q.e.e.w.e.e.e.e.T.T.Y.T.e.Y.w.e.Y.e.T.Y.T.T.q.",
"w.Y.U.e.e.w.e.w.e.q.e.e.e.U.Y.e.w.e.e.T.e.w.e.e.e.w.e.e.T.e.e.e.e.Y.U.w.q.w.w.e.w.w.e.e.w.U.Y.w.e.w.e.T.e.w.w.e.q.e.w.e.T.e.e.w.",
"w.Y.U.e.w.q.w.e.e.w.w.e.e.U.Y.w.w.q.w.e.e.U.U.U.U.U.U.w.e.e.w.e.w.Y.U.e.e.w.e.e.e.q.e.e.e.U.Y.q.e.e.e.w.e.U.U.U.U.U.U.e.w.w.e.w.",
"q.Y.U.w.e.e.w.e.e.w.e.w.w.U.Y.w.e.e.w.e.w.U.U.Y.U.Y.Y.e.e.w.q.e.e.Y.U.e.e.w.e.q.e.e.e.w.e.U.Y.e.w.w.w.w.w.U.U.Y.U.Y.Y.e.q.w.e.w.",
"e.Y.U.e.e.e.w.e.e.e.e.e.e.U.Y.e.e.e.e.U.e.e.U.Y.Y.T.e.e.U.e.e.e.w.Y.U.e.e.e.e.e.e.e.e.e.e.U.Y.e.e.e.e.U.e.e.U.Y.Y.T.e.e.U.e.e.w.",
"w.Y.U.U.U.U.U.w.e.U.U.U.U.U.Y.e.q.Y.U.U.U.Y.e.Y.T.e.Y.U.U.U.Y.w.w.Y.U.U.U.U.U.e.w.U.U.U.U.U.Y.w.e.Y.U.U.U.Y.e.Y.T.e.Y.U.U.U.Y.e.",
"e.Y.Y.Y.Y.Y.Y.e.e.Y.Y.Y.Y.Y.Y.e.w.e.Y.Y.Y.e.e.Y.T.e.e.Y.Y.Y.e.w.w.Y.Y.Y.Y.Y.Y.e.w.Y.Y.Y.Y.Y.Y.e.w.e.Y.Y.Y.e.w.Y.T.e.e.Y.Y.Y.e.q.",
"q.e.e.w.e.q.e.w.w.e.e.w.e.e.e.e.e.e.w.e.e.w.w.Y.T.e.w.e.e.e.w.e.e.e.w.e.e.w.e.w.e.e.w.e.e.e.e.e.e.e.e.w.e.e.e.Y.T.e.q.e.e.w.e.q.",
"e.e.e.w.w.w.e.U.U.e.e.w.w.e.w.q.w.w.e.w.e.q.e.e.e.w.e.e.w.e.e.q.e.w.e.q.e.e.e.U.U.e.q.e.w.e.e.e.q.w.e.w.w.e.w.q.e.e.e.e.w.w.e.q.",
"e.w.w.e.e.e.U.Y.U.U.e.e.e.e.w.e.e.U.U.U.U.U.U.w.w.U.U.U.U.U.U.w.q.e.e.w.e.e.U.Y.U.U.e.e.w.e.w.q.w.U.U.U.U.U.U.w.w.U.U.U.U.U.U.e.",
"w.w.e.w.e.U.U.Y.Y.U.U.e.q.e.e.e.e.U.Y.Y.Y.Y.Y.e.e.Y.Y.Y.Y.Y.U.w.w.w.e.e.e.U.U.Y.Y.U.U.e.e.e.w.e.w.U.Y.Y.Y.Y.Y.e.w.Y.Y.Y.Y.Y.U.w.",
"q.e.e.q.e.U.Y.Y.Y.Y.U.e.w.e.e.q.e.U.Y.e.w.e.q.w.e.w.e.e.e.Y.U.e.w.w.e.e.e.U.Y.Y.Y.Y.U.e.w.e.e.q.e.U.Y.e.e.w.e.e.w.e.e.e.e.Y.U.w.",
"w.e.e.e.e.e.e.Y.T.e.e.e.e.e.e.w.w.U.Y.e.e.w.e.w.e.w.q.w.w.Y.U.e.e.q.e.w.e.e.e.Y.T.e.e.w.e.e.e.e.e.U.Y.w.e.w.e.e.w.e.e.w.e.Y.U.e.",
"w.e.U.U.U.w.e.Y.T.q.e.U.U.U.e.e.e.U.Y.w.e.w.e.e.w.w.w.e.w.Y.U.w.e.e.U.U.U.w.e.Y.T.e.e.U.U.U.e.e.e.U.Y.e.e.q.e.w.w.q.w.w.e.Y.U.e.",
"w.U.U.Y.U.U.e.Y.T.e.U.U.Y.U.U.w.e.U.Y.e.e.q.e.e.e.e.w.e.w.Y.U.w.e.U.U.Y.U.U.e.Y.T.e.U.U.Y.U.U.w.e.U.Y.e.w.w.e.e.w.e.w.e.e.Y.U.e.",
"q.U.Y.Y.Y.Y.U.e.e.U.Y.Y.Y.Y.U.e.e.e.e.e.q.q.w.e.w.e.w.e.e.e.e.e.e.U.Y.Y.Y.Y.U.e.e.U.Y.Y.Y.Y.U.w.e.e.e.w.e.w.w.w.e.e.e.e.w.e.e.e.",
"q.T.T.Y.T.e.Y.q.e.Y.e.T.Y.T.T.e.w.e.e.e.w.e.e.e.w.e.q.w.e.e.w.q.e.T.T.Y.T.e.Y.e.e.Y.e.T.Y.T.T.w.e.w.e.w.e.e.w.e.e.w.e.e.w.w.e.w.",
"w.e.e.T.e.e.w.e.e.w.w.e.T.e.e.e.w.Y.U.w.w.w.e.e.e.e.e.w.e.U.Y.e.e.e.e.T.e.e.e.w.e.e.e.e.T.e.e.w.e.Y.U.e.e.w.w.e.w.e.w.e.e.U.Y.w.",
"w.e.w.w.e.U.U.U.U.U.U.w.e.e.e.w.e.Y.U.w.e.e.e.w.e.q.e.w.w.U.Y.e.w.e.e.q.e.U.U.U.U.U.U.e.w.e.e.q.q.Y.U.w.e.w.q.q.w.q.q.e.e.U.Y.w.",
"w.w.w.q.w.U.U.Y.U.Y.Y.e.q.w.w.w.q.Y.U.e.e.e.e.w.e.e.w.e.e.U.Y.e.w.e.w.w.e.U.U.Y.U.Y.Y.e.e.w.e.e.w.Y.U.w.e.e.e.e.e.w.e.e.w.U.Y.q.",
"w.e.e.U.w.e.U.Y.Y.T.e.e.U.e.e.e.e.Y.U.w.e.q.w.e.e.w.e.w.e.U.Y.e.e.e.e.U.e.e.U.Y.Y.T.e.e.U.e.e.e.e.Y.U.e.w.w.e.e.e.e.e.w.e.U.Y.e.",
"e.Y.U.U.U.Y.e.Y.T.e.Y.U.U.U.Y.e.w.Y.U.U.U.U.U.e.w.U.U.U.U.U.Y.w.e.Y.U.U.U.Y.e.Y.T.e.Y.U.U.U.Y.w.e.Y.U.U.U.U.U.e.w.U.U.U.U.U.Y.w.",
"e.e.Y.Y.Y.e.w.Y.T.e.e.Y.Y.Y.e.e.e.Y.Y.Y.Y.Y.Y.e.e.Y.Y.Y.Y.Y.Y.e.e.e.Y.Y.Y.e.e.Y.T.e.e.Y.Y.Y.e.e.e.Y.Y.Y.Y.Y.Y.e.e.Y.Y.Y.Y.Y.Y.e.",
"e.w.e.e.w.e.e.Y.T.q.e.e.e.e.e.q.q.e.e.e.e.w.e.e.q.e.w.e.w.e.e.q.e.e.e.e.e.q.w.Y.T.e.w.e.e.e.e.w.w.e.e.w.e.e.w.e.w.e.w.q.e.e.w.e.",
"q.e.w.e.e.w.w.q.e.w.e.e.w.w.w.w.w.e.w.e.w.e.e.U.U.e.w.e.w.w.e.e.q.w.e.e.e.e.e.e.e.e.e.w.e.w.q.e.e.w.e.e.e.w.e.U.U.e.e.w.e.w.e.w.",
"w.U.U.U.U.U.U.e.e.U.U.U.U.U.U.e.w.e.e.q.w.e.U.Y.U.U.e.e.e.e.e.e.q.U.U.U.U.U.U.q.w.U.U.U.U.U.U.w.e.e.w.e.w.e.U.Y.U.U.e.e.w.e.q.w.",
"w.U.Y.Y.Y.Y.Y.w.e.Y.Y.Y.Y.Y.U.e.w.w.e.q.e.U.U.Y.Y.U.U.e.w.q.e.w.w.U.Y.Y.Y.Y.Y.e.w.Y.Y.Y.Y.Y.U.q.e.e.w.e.w.U.U.Y.Y.U.U.e.w.e.w.e.",
"w.U.Y.e.w.e.e.w.q.w.w.e.e.Y.U.e.q.w.w.e.e.U.Y.Y.Y.Y.U.w.e.w.e.w.e.U.Y.e.w.e.e.e.e.w.e.e.w.Y.U.e.q.e.e.e.w.U.Y.Y.Y.Y.U.e.q.e.w.w.",
"e.U.Y.e.q.q.e.e.e.e.e.w.e.Y.U.w.w.e.e.w.w.w.w.Y.T.e.e.e.w.e.e.e.e.U.Y.e.e.w.e.e.e.q.e.e.w.Y.U.w.q.e.w.e.e.q.e.Y.T.e.w.e.w.e.e.w.",
"e.U.Y.q.e.w.e.w.e.w.e.q.e.Y.U.e.w.e.U.U.U.q.e.Y.T.e.q.U.U.U.e.q.e.U.Y.e.e.w.q.e.e.e.w.e.e.Y.U.w.e.e.U.U.U.e.w.Y.T.e.e.U.U.U.e.w.",
"w.U.Y.e.e.e.w.e.e.e.e.w.e.Y.U.e.e.U.U.Y.U.U.e.Y.T.e.U.U.Y.U.U.w.w.U.Y.w.q.e.e.e.e.q.e.e.w.Y.U.w.e.U.U.Y.U.U.e.Y.T.e.U.U.Y.U.U.w.",
"q.e.w.e.w.e.w.w.w.q.e.e.e.e.w.e.w.U.Y.Y.Y.Y.U.e.e.U.Y.Y.Y.Y.U.e.w.e.e.w.e.w.e.e.e.q.q.e.e.e.e.e.e.U.Y.Y.Y.Y.U.e.e.U.Y.Y.Y.Y.U.e.",
"q.e.e.e.e.q.e.e.e.w.w.w.e.e.e.e.q.T.T.Y.T.e.Y.e.q.Y.e.T.Y.T.T.e.e.w.e.w.e.e.e.w.w.e.e.w.e.e.e.e.w.T.T.Y.T.e.Y.e.e.Y.e.T.Y.T.T.q.",
"e.Y.U.w.e.e.w.q.e.w.e.q.e.U.Y.e.w.e.e.T.e.e.e.w.e.e.w.e.T.e.e.q.e.Y.U.e.e.e.e.w.w.e.e.w.e.U.Y.w.e.w.e.T.e.w.e.w.q.e.w.e.T.e.e.q.",
"e.Y.U.e.w.e.w.w.e.e.w.e.w.U.Y.w.e.w.w.e.w.U.U.U.U.U.U.e.q.w.w.q.e.Y.U.e.w.e.e.w.e.e.e.e.e.U.Y.w.q.e.e.w.e.U.U.U.U.U.U.e.e.w.e.w.",
"e.Y.U.e.q.w.e.w.e.e.w.e.w.U.Y.w.e.e.w.w.e.U.U.Y.U.Y.Y.w.e.e.q.q.w.Y.U.e.q.e.e.q.w.e.q.w.e.U.Y.e.w.e.w.e.e.U.U.Y.U.Y.Y.w.e.q.w.e.",
"e.Y.U.e.e.w.w.e.q.e.e.e.w.U.Y.w.e.e.e.U.w.e.U.Y.Y.T.e.e.U.e.e.e.w.Y.U.w.e.e.e.e.e.e.e.e.e.U.Y.e.e.e.e.U.w.e.U.Y.Y.T.e.e.U.e.e.w.",
"q.Y.U.U.U.U.U.w.e.U.U.U.U.U.Y.e.q.Y.U.U.U.Y.e.Y.T.e.Y.U.U.U.Y.q.q.Y.U.U.U.U.U.e.w.U.U.U.U.U.Y.e.w.Y.U.U.U.Y.e.Y.T.e.Y.U.U.U.Y.w.",
"e.Y.Y.Y.Y.Y.Y.q.e.Y.Y.Y.Y.Y.Y.e.w.e.Y.Y.Y.e.w.Y.T.w.e.Y.Y.Y.e.w.e.Y.Y.Y.Y.Y.Y.e.e.Y.Y.Y.Y.Y.Y.w.e.e.Y.Y.Y.e.w.Y.T.w.e.Y.Y.Y.e.w.",
"Y U Y Y Y U U U U U Y Y Y Y Y Y Y U U U Y Y U U Y Y Y Y Y U U U U U U Y Y Y Y Y U U U U U U U U U U Y Y U Y U U U Y Y Y Y U Y Y ",
"R R E R R R E E R E R R E R R E R R R R R E R R R E T E R R E E E E E R R R R R R E E E E R R E R R E E E E R E E R R R R E E E ",
"R E R E E E E E E R E R R E R E E E E E R R E R E E R R R R E E E R R R E R E R R R R E E E E R R E R R R R R R E R E E R R R R ",
"R R E R E E R E E E E R R E E R E E E E E E E R E E R E E E E E E R R E E E E E E E R R R R E R R R R E R E E R R E R R R R R E ",
"R E E E R R R R E E E E E R R R E E R R R R E E E R R R E R R E E E R R R E E E E E E R E E E E E E E R R E E T R R E E E R E R ",
"R R R E E E E R E R R E E E E R R E E E E R E R R E E E E E E E E E E E R R R E E E E E E R E E R E E R E R R R E E R R R R R R ",
"R R R E E E E R E R R E E E E R R E E E E R E R R E E E E E E E E E E E R R E E E E E E E R E E R E E R E R R R E E E E R R R R ",
"R E E E E T R R R E E R R R R E E E E E R R R R E E E E R R R R E E E E E E R R R E E E E E E R R R E E E E E E R R R E E R R E ",
"W W Q W W W Q Q Q Q Q W W W W W W Q Q Q Q Q Q Q W W W Q Q W W Q Q Q Q W W W W Q Q Q Q Q Q Q W W W W W W Q Q Q Q Q W W W W W W Q ",
"Y U Y Y Y Y Y Y Y U U U U U U Y Y Y Y Y Y Y U U U U U Y Y U U Y Y Y Y Y U U U U U U U U U U Y Y Y U U U U Y Y Y Y U Y Y Y Y U Y ",
"R E R E E E E E E E R R E R R R R E E R R R E R R R E E E E R R E R R R R R R R E E E E R R R R R R R E E E E E E R R R E R R R ",
"E R R R E R R E E R R R E E E E E R R E E R R E R E E T E E E R R R R E E E E E R R E E E E E R E E E R R R R R R R E E R E R E ",
"R R E E E E E E E E R R R E R R R E E E E E E E R R R E E E E E E E E E R E E R R R R R R R R R R E E E E E E T R R E R R E E R ",
"E R E R T R R R E E E E E E E E E E E R E E R R E E E E E E E R E E E R R R E E E E T E E E E E E E E E E E E E E E R R R R E E ",
"R E E E E E E E R R R R R E R R R E E R R R E E R R R R E R R R R E E E E E E R R R R R R E E R R R R E E E R R E E E E R R R E ",
"R E R E E R R R R E E E R R R E E E E E R R R R E R R E E E R R E E E E R R R R E E E E E R R R E E E E E R R R R R R E E E R R ",
"W W Q Q Q W W W W W Q W W W W W Q Q Q Q Q Q Q W W W W Q W W W W Q Q W W W W Q Q Q Q Q W W W W W W W Q Q Q Q Q Q Q W W W W W Q Q "
};
