/* XPM */
static char *_0[] = {
/* columns rows colors chars-per-pixel */
"64 64 256 2 ",
"   c black",
".  c #1C1408",
"X  c #140C04",
"o  c #494949",
"O  c white",
"+  c #181818",
"@  c #101010",
"#  c gray3",
"$  c #040404",
"%  c #2C341C",
"&  c #20280C",
"*  c #141C04",
"=  c #0C1400",
"-  c #4D3828",
";  c #453020",
":  c #3C2818",
">  c #FFB6B6",
",  c #F7AAAA",
"<  c #F3A2A2",
"1  c #EB9696",
"2  c #E78E8E",
"3  c #DF8686",
"4  c #DB7979",
"5  c #D37171",
"6  c #CB6969",
"7  c #C76161",
"8  c #BE5959",
"9  c #BA5555",
"0  c #B24D4D",
"q  c #AE4545",
"w  c #A63C3C",
"e  c #A23838",
"r  c #9A3030",
"t  c #962C2C",
"y  c #8E2828",
"u  c #8A2020",
"i  c #821C1C",
"p  c #7D1818",
"a  c #751414",
"s  c #711010",
"d  c #690C0C",
"f  c #650808",
"g  c #5D0404",
"h  c #590404",
"j  c #510404",
"k  c #4D0000",
"l  c #450000",
"z  c #410000",
"x  c #FFEBDF",
"c  c #FFE3D3",
"v  c #FFDBC7",
"b  c #FFD3BA",
"n  c #FFCFB2",
"m  c #FFC7A6",
"M  c #FFBE9A",
"N  c #FFBA92",
"B  c #FFB282",
"V  c #F7AA79",
"C  c #EFA271",
"Z  c #E79A69",
"A  c #DF9261",
"S  c #D78A59",
"D  c #CF8251",
"F  c #CB7D4D",
"G  c #BE7949",
"H  c #B27145",
"J  c #AA6D41",
"K  c #A2693C",
"L  c #9A6138",
"P  c #8E5D34",
"I  c #865530",
"U  c #7D512C",
"Y  c #754D28",
"T  c #694524",
"R  c #5D4120",
"E  c #513C1C",
"W  c #493418",
"Q  c #3C2C14",
"!  c #302810",
"~  c #28200C",
"^  c #EFEFEF",
"/  c #E7E7E7",
"(  c #DFDFDF",
")  c gray86",
"_  c LightGray",
"`  c #CBCBCB",
"'  c gray78",
"]  c gray",
"[  c #B6B6B6",
"{  c #B2B2B2",
"}  c #AAAAAA",
"|  c gray65",
" . c gray62",
".. c gray59",
"X. c #929292",
"o. c gray54",
"O. c gray51",
"+. c gray49",
"@. c gray46",
"#. c #6D6D6D",
"$. c DimGray",
"%. c gray38",
"&. c gray35",
"*. c #555555",
"=. c gray30",
"-. c gray27",
";. c #414141",
":. c gray22",
">. c #343434",
",. c #2C2C2C",
"<. c gray14",
"1. c #202020",
"2. c #75FF6D",
"3. c #6DEF65",
"4. c #65DF5D",
"5. c #5DCF55",
"6. c #59BE4D",
"7. c #51AE45",
"8. c #499E3C",
"9. c #419234",
"0. c #3C822C",
"q. c #347128",
"w. c #2C6120",
"e. c #245118",
"r. c #1C4114",
"t. c #14300C",
"y. c #102008",
"u. c #081404",
"i. c #BEA68E",
"p. c #B69E86",
"a. c #AE967D",
"s. c #A68E75",
"d. c #9E866D",
"f. c #9A7D69",
"g. c #927961",
"h. c #8A7159",
"j. c #826955",
"k. c #79614D",
"l. c #755D49",
"z. c #6D5541",
"x. c #65513C",
"c. c #5D4934",
"v. c #554130",
"b. c #513C2C",
"n. c #9E8261",
"m. c #8E7551",
"M. c #826949",
"N. c #755D3C",
"B. c #655130",
"V. c #594528",
"C. c #4D3820",
"Z. c #413018",
"A. c #797D61",
"S. c #6D7155",
"D. c #65694D",
"F. c #596145",
"G. c #515538",
"H. c #454D30",
"J. c #3C4528",
"K. c #343C24",
"L. c #FFFF71",
"P. c #EBDB55",
"I. c #D7BA41",
"U. c #C39A2C",
"Y. c #AE791C",
"T. c #9A5910",
"R. c #864104",
"E. c #712800",
"W. c white",
"Q. c #FFDBDB",
"!. c #FFBABA",
"~. c #FF9A9A",
"^. c #FF7979",
"/. c #FF5D5D",
"(. c #FF3C3C",
"). c #FF1C1C",
"_. c red",
"`. c #EF0000",
"'. c #E30000",
"]. c #D70000",
"[. c #CB0000",
"{. c #BE0000",
"}. c #B20000",
"|. c #A60000",
" X c #9A0000",
".X c #8A0000",
"XX c #7D0000",
"oX c #710000",
"OX c #650000",
"+X c #590000",
"@X c #4D0000",
"#X c #410000",
"$X c #E7E7FF",
"%X c #C7C7FF",
"&X c #AAAAFF",
"*X c #8E8EFF",
"=X c #7171FF",
"-X c #5151FF",
";X c #3434FF",
":X c #1818FF",
">X c blue",
",X c #0000E3",
"<X c #0000CB",
"1X c #0000B2",
"2X c #00009A",
"3X c #000082",
"4X c #000069",
"5X c #000051",
"6X c white",
"7X c #FFEBDB",
"8X c #FFD7BA",
"9X c #FFC79A",
"0X c #FFB279",
"qX c #FFA259",
"wX c #FF8E38",
"eX c #FF7D18",
"rX c #F37114",
"tX c #EB6D0C",
"yX c #DF650C",
"uX c #D75D08",
"iX c #CB5504",
"pX c #C34D00",
"aX c #B64500",
"sX c #AE4100",
"dX c white",
"fX c #FFFFD7",
"gX c #FFFFB2",
"hX c #FFFF8E",
"jX c #FFFF69",
"kX c #FFFF45",
"lX c #FFFF20",
"zX c yellow",
"xX c #A63C00",
"cX c #9E3400",
"vX c #922C00",
"bX c #862000",
"nX c #4D3824",
"mX c #412C18",
"MX c #342010",
"NX c #2C1808",
"BX c #000051",
"VX c #000045",
"CX c #000038",
"ZX c #00002C",
"AX c #000020",
"SX c #000014",
"DX c #000008",
"FX c black",
"GX c #FF9E41",
"HX c #FFE749",
"JX c #FF79FF",
"KX c magenta",
"LX c #CF00CF",
"PX c #9E009A",
"IX c #6D0069",
"UX c magenta",
/* pixels */
"Y.2X4XU.U.Y.T.4X2XT.Y.U.U.2X4XU.Y.3X2XU.U.Y.T.4X3XT.Y.U.U.2X3XU.Y.2X4XU.U.Y.T.3X4XT.Y.U.U.2X3XY.U.3X4XU.U.Y.T.4X3XT.Y.U.U.2X4XY.",
"4XU.3XU.Y.T.3X2X3X3XT.Y.U.3XY.4X2XU.3XU.Y.T.3X2X3X2XT.Y.U.4XY.2X3XY.3XU.Y.T.2X2X3X2XT.Y.U.4XU.3X2XU.3XU.Y.T.3X2X2X3XT.Y.U.2XU.4X",
"U.3XY.3XT.3XU.U.U.U.3XT.3XU.2XU.U.3XU.3XT.3XU.U.U.U.3XT.3XU.2XU.U.4XY.3XT.3XU.U.U.U.3XT.3XU.3XU.U.3XY.3XT.3XU.U.U.U.3XT.4XY.3XU.",
"U.U.3XU.2X2XU.Y.U.Y.4X3XU.3XU.Y.U.U.3XU.2X3XU.Y.U.Y.3X3XU.3XU.Y.U.U.2XU.3X3XU.Y.U.Y.2X3XU.3XU.Y.U.U.4XU.4X4XU.Y.U.Y.4X3XU.3XU.Y.",
"Y.U.U.3XY.4X3XY.T.3X3XY.2XU.Y.U.Y.U.U.4XU.2X2XY.T.3X2XY.3XU.Y.U.Y.U.U.3XY.4X2XY.T.2X4XY.3XU.Y.U.Y.U.U.3XY.4X2XY.T.3X3XY.3XU.Y.U.",
"Y.Y.U.3X3XY.3XY.T.3XY.3X3XU.Y.Y.Y.Y.U.3X3XY.4XY.T.3XY.2X3XU.Y.Y.Y.Y.U.3X2XY.3XY.T.3XU.3X2XU.Y.Y.Y.Y.U.3X3XY.3XY.T.3XU.2X4XU.Y.Y.",
"T.4X3X2X3X3XU.3X2XY.3X2X2X2X4XY.T.4X2X3X4X3XY.4X3XU.3X2X3X3X2XY.T.3X3X3X4X3XU.3X4XY.3X4X3X3X3XY.T.3X2X3X2X3XU.3X4XY.3X3X3X4X4XY.",
"T.3XU.U.3X2X3XY.Y.2X4X3XU.U.3XY.T.3XU.U.3X2X4XU.Y.3X4X3XU.U.3XY.T.2XU.U.3X2X2XU.Y.4X3X2XU.U.3XY.T.3XU.U.4X2X3XU.Y.2X4X3XU.U.2XY.",
"3XT.Y.U.U.4X3XU.Y.3X2XU.U.Y.T.3X3XT.Y.U.U.3X4XY.U.3X2XU.U.Y.T.4X3XT.Y.U.U.3X4XU.Y.2X3XU.U.Y.T.3X3XT.Y.U.U.3X2XY.Y.2X3XU.U.Y.T.4X",
"4X3XT.Y.U.3XY.3X4XY.3XU.Y.T.3X2X4X3XT.Y.U.3XU.3X4XY.3XU.Y.T.3X2X3X3XT.Y.U.3XU.2X4XY.3XU.Y.T.2X4X3X3XT.Y.U.3XY.3X4XU.2XU.Y.T.3X2X",
"U.U.3XT.3XY.3XU.U.3XU.3XT.3XU.U.U.U.2XT.4XU.3XU.U.3XU.2XT.3XU.U.U.U.3XT.3XY.3XU.U.3XU.3XT.3XU.U.U.U.3XT.3XU.3XU.U.3XY.3XT.4XU.U.",
"U.Y.4X3XU.3XU.Y.U.U.2XU.3X3XU.Y.U.Y.3X3XY.2XU.Y.U.U.2XY.3X2XU.Y.U.Y.3X2XY.2XU.Y.U.U.2XY.3X3XU.Y.U.Y.3X3XU.3XU.Y.U.U.2XU.3X2XU.Y.",
"T.3X2XU.3XU.Y.U.Y.U.U.3XY.4X3XY.T.3X4XU.3XU.Y.U.Y.U.U.3XU.3X4XY.T.2X4XU.3XU.Y.U.Y.U.U.3XU.4X3XY.T.2X3XY.3XU.Y.U.Y.U.U.3XY.2X3XY.",
"T.3XY.3X4XU.Y.Y.Y.Y.U.4X3XU.3XY.T.3XY.3X3XU.Y.Y.Y.Y.U.3X2XU.2XY.T.3XY.2X4XU.Y.Y.Y.Y.U.2X2XU.2XY.T.3XU.2X3XU.Y.Y.Y.Y.U.4X3XY.3XY.",
"2XY.3X2X3X2X3XY.T.3X3X2X3X3XY.4X3XY.3X2X4X2X3XY.T.3X2X3X4X4XU.3X2XU.3X2X4X3X3XY.T.2X4X3X3X3XY.3X3XY.3X3X4X2X4XY.T.2X3X2X2X2XU.2X",
"U.3X4X2XU.U.3XY.T.3XU.U.3X2X3XU.Y.2X4X2XU.U.3XY.T.2XU.U.3X2X3XU.Y.3X4X3XU.U.3XY.T.3XU.U.2X3X2XU.Y.2X2X3XU.U.3XY.T.3XU.U.3X3X2XU.",
"Y.3X3XU.U.Y.T.2X2XT.Y.U.U.4X2XY.U.3X3XU.U.Y.T.4X2XT.Y.U.U.3X2XY.U.3X3XU.U.Y.T.3X2XT.Y.U.U.2X4XY.U.4X2XU.U.Y.T.4X3XT.Y.U.U.4X3XU.",
"2XY.3XU.Y.T.3X4X3X3XT.Y.U.2XY.3X4XY.3XU.Y.T.2X3X3X4XT.Y.U.2XU.4X2XY.3XU.Y.T.2X4X2X3XT.Y.U.3XY.2X4XU.3XU.Y.T.2X2X2X3XT.Y.U.3XU.3X",
"U.3XU.2XT.3XU.U.U.U.3XT.3XY.3XU.U.2XU.3XT.3XU.U.U.U.3XT.3XY.3XU.U.3XU.2XT.2XU.U.U.U.3XT.3XY.3XU.U.2XU.3XT.3XU.U.U.U.3XT.2XU.3XU.",
"U.U.2XY.3X3XU.Y.U.Y.2X3XY.2XU.Y.U.U.3XU.3X2XU.Y.U.Y.2X3XU.3XU.Y.U.U.2XY.4X2XU.Y.U.Y.3X3XU.2XU.Y.U.U.3XY.3X2XU.Y.U.Y.3X3XU.2XU.Y.",
"Y.U.U.3XU.4X3XY.T.4X2XY.2XU.Y.U.Y.U.U.3XY.4X3XY.T.2X4XY.3XU.Y.U.Y.U.U.3XU.3X2XY.T.4X2XU.3XU.Y.U.Y.U.U.4XY.4X3XY.T.4X2XY.2XU.Y.U.",
"Y.Y.U.2X3XY.3XY.T.3XY.4X2XU.Y.Y.Y.Y.U.4X2XU.3XY.T.3XU.3X2XU.Y.Y.Y.Y.U.4X2XU.3XY.T.3XY.2X4XU.Y.Y.Y.Y.U.2X3XU.2XY.T.3XU.4X2XU.Y.Y.",
"T.2X3X4X2X3XU.3X2XY.3X2X4X3X4XY.T.2X2X3X2X3XY.2X4XY.3X3X2X2X3XY.T.3X3X3X2X3XY.4X2XU.3X2X3X2X2XY.T.2X3X2X2X3XU.4X3XY.3X2X3X2X3XY.",
"T.3XU.U.3X4X3XY.Y.3X4X3XU.U.3XY.T.3XU.U.2X4X4XY.Y.2X2X4XU.U.2XY.T.3XU.U.3X2X2XU.U.2X3X4XU.U.3XY.T.3XU.U.3X2X3XU.U.2X2X3XU.U.4XY.",
"2XT.Y.U.U.2X3XU.Y.2X3XU.U.Y.T.2X4XT.Y.U.U.4X2XU.Y.3X2XU.U.Y.T.2X3XT.Y.U.U.4X3XY.U.3X2XU.U.Y.T.3X3XT.Y.U.U.4X3XY.U.4X2XU.U.Y.T.2X",
"3X4XT.Y.U.3XU.3X2XY.3XU.Y.T.3X4X2X3XT.Y.U.3XY.3X4XY.3XU.Y.T.3X4X3X3XT.Y.U.2XY.4X3XY.3XU.Y.T.3X4X3X3XT.Y.U.3XY.2X4XU.3XU.Y.T.3X4X",
"U.U.3XT.3XU.3XU.U.4XU.3XT.2XU.U.U.U.3XT.3XU.3XU.U.3XY.3XT.4XU.U.U.U.2XT.2XU.2XU.U.2XY.3XT.3XU.U.U.U.2XT.3XU.3XU.U.3XY.3XT.2XU.U.",
"U.Y.4X3XY.2XU.Y.U.U.3XY.3X3XU.Y.U.Y.4X2XU.3XU.Y.U.U.3XU.3X2XU.Y.U.Y.3X3XY.3XU.Y.U.U.4XU.3X2XU.Y.U.Y.4X2XU.2XU.Y.U.U.3XU.3X4XU.Y.",
"T.2X3XY.3XU.Y.U.Y.U.U.3XU.2X4XY.T.3X2XY.3XU.Y.U.Y.U.U.3XY.3X3XY.T.2X2XU.2XU.Y.U.Y.U.U.3XU.4X2XY.T.2X2XY.3XU.Y.U.Y.U.U.3XY.2X3XY.",
"T.3XU.3X2XU.Y.Y.Y.Y.U.3X3XU.2XY.T.3XU.4X4XU.Y.Y.Y.Y.U.2X3XU.2XY.T.3XY.4X3XU.Y.Y.Y.Y.U.2X3XU.2XY.T.3XY.2X4XU.Y.Y.Y.Y.U.2X3XY.4XY.",
"3XU.3X3X2X3X2XY.T.3X3X3X4X3XU.4X3XY.3X4X2X3X3XY.T.4X3X4X4X3XY.2X3XY.3X2X2X3X4XY.T.3X3X3X4X2XY.3X4XU.3X3X2X3X2XY.T.3X2X4X3X3XU.2X",
"Y.3X4X3XU.U.3XY.T.3XU.U.3X3X3XY.U.3X2X3XU.U.3XY.T.3XU.U.3X2X3XY.U.2X4X3XU.U.3XY.T.3XU.U.3X3X3XY.U.2X4X3XU.U.2XY.T.3XU.U.2X2X3XU.",
"U.3X2XU.U.Y.T.2X4XT.Y.U.U.2X3XU.Y.3X4XU.U.Y.T.3X4XT.Y.U.U.4X3XY.U.3X4XU.U.Y.T.2X3XT.Y.U.U.4X3XU.Y.3X2XU.U.Y.T.3X4XT.Y.U.U.2X3XY.",
"3XY.3XU.Y.T.3X2X2X3XT.Y.U.3XU.4X3XY.3XU.Y.T.3X2X3X3XT.Y.U.3XY.2X3XY.3XU.Y.T.3X4X2X3XT.Y.U.2XU.2X3XY.3XU.Y.T.3X2X3X3XT.Y.U.3XY.2X",
"U.3XU.3XT.3XU.U.U.U.3XT.3XY.3XU.U.3XU.3XT.3XU.U.U.U.3XT.3XU.3XU.U.2XY.3XT.3XU.U.U.U.3XT.3XU.3XU.U.3XU.3XT.3XU.U.U.U.2XT.3XY.3XU.",
"U.U.2XU.3X2XU.Y.U.Y.4X3XU.3XU.Y.U.U.3XU.3X2XU.Y.U.Y.4X3XY.3XU.Y.U.U.3XU.3X4XU.Y.U.Y.4X3XY.2XU.Y.U.U.2XU.3X2XU.Y.U.Y.3X3XY.2XU.Y.",
"Y.U.U.3XU.3X3XY.T.2X3XU.3XU.Y.U.Y.U.U.3XU.3X3XY.T.2X4XU.3XU.Y.U.Y.U.U.3XU.2X2XY.T.3X3XY.3XU.Y.U.Y.U.U.2XU.4X2XY.T.2X2XY.3XU.Y.U.",
"Y.Y.U.2X4XU.2XY.T.3XY.3X4XU.Y.Y.Y.Y.U.2X4XY.4XY.T.3XU.3X2XU.Y.Y.Y.Y.U.2X3XY.3XY.T.2XU.2X2XU.Y.Y.Y.Y.U.3X3XY.3XY.T.3XY.2X4XU.Y.Y.",
"U Y Y Y U U U U U U Y Y Y Y U Y Y Y U U U U U U U Y Y U U U U U U Y Y Y U U U Y Y U U U U U U U U Y U U Y Y U U Y Y U U U Y Y U ",
"E R T E E E E E E E E E R R R E E R R R R E E E E E E E E R T R E R E E E E E E R R E E E E R T R R E E E R R T E E R R E E R E ",
"Q W W W Q Q Q Q Q Q W W W W Q Q W W W Q Q Q Q Q Q W Q Q Q Q Q Q W W W W Q Q W W W Q Q Q Q Q Q Q Q W W Q Q W W Q Q Q Q W W Q Q Q ",
"Q W Q Q Q R Y E R W Q W Q Q Q W W Q R Y E E Q Q W Q Q Q W W Q R U R R Q Q W Q Q Q W Q W R U E E W Q W Q Q W Q Q W R Y E E Q W Q ",
"E E R E R U U R R Q W R E E E E E E U U E R W Q R E R E E E R U Y E E Q Q R R E R R R R Y Y R R Q Q R E R E T R R Y Y R R W Q R ",
"E R R E R U Y E E Q Q R R E R E E E Y Y E R W W R E E E T E E U Y E E W Q R E E E E E R U Y E E W W R R R E R R T Y Y R R W Q E ",
"R E E T E U Y R E Q Q E T R R E E R U Y R E Q W E R R R R R E Y U E E Q W E T R R R E R Y Y E R Q Q E E R E E R E Y Y E E Q Q R ",
"E E R T E Y U E R W Q R E E E R E R U U E E Q Q E E E E E R E Y U R R Q W R E R E R R E U U R E Q W E E E R R E R Y Y E E Q Q R ",
"E R E E R U U E R W W R E R E R E R Y U E E Q Q E R E E R E E Y U R R Q Q R R E R R E E U U R E W Q R R E R E E R Y Y E R Q Q E ",
"E R E E R U U E E W W R R R R E E E Y U R R W Q E R E E R E E U Y R E Q Q E R E R E E R Y Y R R W W E R R E E R R Y Y E R Q W E ",
"R R E E R U Y R R Q W E R E R E R E Y U E R W Q E R R E R E R U Y E R Q Q E R E R R E R Y Y R E Q Q E E R T R E E Y Y R E W Q E ",
"R E R E E U Y E E Q Q E R E E R E E U Y R E W W R R R R E E R Y U E E W Q E E E E R E R U Y E E Q Q E E E R E E R Y Y E E W Q T ",
"E E E E R Y U E R Q Q E R E R E E R U Y R E W Q R E R R E R E Y U E E W Q R E R E E R R U U E E W Q E E E E E E R Y Y E E Q Q E ",
"R R E E E Y U E R Q Q E R E R E E E U Y E R Q Q E E E R E R E U U E E Q Q R E R R R E E U U R E Q Q R E E E R R R Y Y E R Q Q E ",
"R R E E E U Y E E Q Q R E R E E E E Y Y E R Q W E R E R R R E U Y E R Q W R E E E R E E U Y R R Q W R E R E R E E Y Y E R W Q R ",
"E R E R E U Y R E Q Q R E E E R E R Y U E R Q W E R T R R R R Y U E E Q W R R R E R R E Y U E R Q Q E R R E E E E Y Y R R W W R ",
"E R E R R Y U R E W W E R E T T E R Y U E R Q Q E E E E E R E Y U R R Q Q E E R E E R E Y Y E R W Q E R T R E E R Y Y R E Q W R ",
"E R E E T Y Y E E W W E R E E E E R U Y R E W Q R E R E E R E U U E E W Q E E R E R R R U Y E E W Q E E R R E E R Y Y R E Q Q E ",
"E E E R E U Y E E Q Q E E R R E E E Y Y R E Q Q R E E E E E E U Y E R Q Q R R E R R E R Y U R E Q W R E R E E R E Y Y E R W Q E ",
"U U Y U U Y U E R W R U U U Y Y Y U Y U R E W R Y Y Y Y Y Y Y Y U R E W R U Y Y U U Y Y U Y E R W R Y Y Y Y Y Y Y Y Y R E Q R Y ",
"U Y Y Y Y U U U Y Y Y Y Y U U Y Y Y Y U U U U U Y Y U U U Y U U U Y Y Y U U U U U Y Y Y Y U U U Y Y Y Y Y U U U U U Y U U Y Y U ",
"T E R E E E E R R E E R R E E E E E E E E E E E R E E E E R R R E T E E E E E E E E E E R R E R R R R E E E E E R R R R E R T R ",
"Q W W W Q Q Q Q W Q W W Q W Q Q Q Q Q Q Q Q Q Q Q Q W W Q W W W Q Q Q Q Q Q Q Q Q W W W W W Q W Q Q Q Q W W W W Q Q W W Q W W Q ",
"Y U Y Y Y Y U U U U U U U Y Y Y Y Y Y Y U U Y Y Y Y Y U U U U U Y Y Y Y Y Y U U U U U U U U U U Y Y U U U U U U U U Y Y Y Y U Y ",
"E E T R R R E E E E E E E E R R R R E R R R E E E E E E E R R R R E E E T E E E R R E E R R R E E E R R R E E E E E R R R R E E ",
"Q W W W W Q Q Q Q Q Q Q Q Q W W W Q Q W W Q Q Q Q Q Q Q Q Q Q Q Q W W W Q Q W W W W W Q Q Q Q Q Q Q Q Q Q Q W W W W W Q Q W W Q "
};
