/* XPM */
static char * trees_3_xpm[] = {
"64 64 31 1",
" 	c #000000",
".	c #302810",
"+	c #413018",
"@	c #28200C",
"#	c #020201",
"$	c #040301",
"%	c #080602",
"&	c #030201",
"*	c #040302",
"=	c #070602",
"-	c #010100",
";	c #020100",
">	c #020101",
",	c #030301",
"'	c #0A0803",
")	c #1A130A",
"!	c #050402",
"~	c #320000",
"{	c #0C0A04",
"]	c #221C0B",
"^	c #1C1708",
"/	c #340000",
"(	c #FA0000",
"_	c #FC0000",
":	c #540000",
"<	c #191408",
"[	c #3E0000",
"}	c #150000",
"|	c #493418",
"1	c #513C1C",
"2	c #5D4120",
"                                                          .     ",
"                                                         +@     ",
"                                                  .++    +@     ",
"                                                  @..+   .@     ",
"        +                                          @@.   @@     ",
"        .                                 #      @@@..   .@     ",
"        .                                           @.+ +.@     ",
"   +   +@                               $           @..+..@    +",
"  ++  +.@                                            @.....@  +.",
"  +.  .@                 %         &              +@ @.....@  .@",
"  +.@ .@                                #         @   +.+...@..@",
"  +.@ .@                                         .@   +......@.@",
"  +@@ .@    *         #   +                   .  .@   .+.+....@ ",
"  +@@ .@              &   .       .            @+@    .+.+...@  ",
"  +.@ .@  =         -;    @+     .@             +@    +......@  ",
"  +@@ @           -       @.+   +@              .@    +.+.@@@@  ",
"+ ..@ @           >        @+   .@             +@     +++....@  ",
"+ +..@@                    @.  +@              .@     +.....@@  ",
".+...@@                    @.  +@              @@     +++...@@  ",
".....@@  .                 @.  .@              @@     ......@   ",
"@.....@ .@          -   +   .+ .@            . .@ .+  +...@.@   ",
"@.+...@..@              ..  .+..@             +.@ @.  ++..@@@   ",
"@.++....@               @++ .+.@               .@ @@.+......@   ",
"@@++...@@                @. .@@@               @@  @..+...@@    ",
" @.+...@@                @. ..@@              ..@  @@.+....@    ",
"  .....@                  @+.@.@              +.@   @....@.@    ",
"  ++..@@                  @...@               +@    @...@..@    ",
"  ++...@                  @+.@@               +@    @....@@     ",
"  ++.@@@                  @..@@               .@     +...@@     ",
"  ....@@@         ,        @@@@            +  +@     +....@@    ",
" .+..@.@@    '    #        @.@@            .@ .@     ...@@.@    ",
" ++....@          >&-      @.@@            @..@@     +...@@     ",
" ++..@@@   .      -         .@@             @..@     ++...@     ",
"  +....@@ +@      -         .@@     =        +@@     ......@    ",
"  ++...@@ .        ,&     @+..@              +@       ++..@@    ",
"  +.++....@                @..@ .            +@ .     ++...@ .  ",
"   ++.....@                 +.@+@            ..@@     ...@...@  ",
"   ...@..@                  +..@            +..@      +.+..@@   ",
"   +....@@     .            ..@             .@@       +.....@   ",
"   +...@@      +)!          +.@      ,      ..@       +....@    ",
"  +.....@      +..          .@@     +.      +@@       .+...@    ",
"  +...@@        ++         +.@@     .@      ..   ~ ~  ....@@    ",
"+ ....@@        +..{       +..@@    .@]^   +.@  /(~_: +.+.@@    ",
".+.+.@.@        +.@<       ++.@@    ..@@   ...@  ~ [} +.+.@@    ",
"@..+.@.@        ...@       +..@@     +@@   +@@@       +....@    ",
" @....@@@       +.@        .@@.@@@  ...@   +.@       +.....@    ",
"  ......@       +.@     |1+@1|+.@@@+@@@.. +...@      +.....@    ",
"1 +....@@|21|1| ...@  2|+.@|11.+.@@.@@1@@+.@@.@@|21|1.....@@1  1",
"1|++...@||||||1+..@@|1||1|||||||||1.@||1|@@|1|..@|||.+.....@|122",
"|1++.@@@12|2||+.....@12|11|11||12|1|11122|||||||||21+......@2||1",
"2|.....@2|1|1|+.@...@||1221221|++@@|2|1|1|1||1||2|1|+......@||||",
"1|++..@.@|1||+.@1+@@.@@|||12|||.+..@|11|11|1|211|1|+........@2||",
"|1.+....@|2|+.@@|+@|..@11|2|1|....@@|221|1211||||.+...@.@...@@|1",
"|2+.....@1||.@|1|@|1||.@||111++@+..@|||||121|1|1.+.@...@@@...@21",
"1|+...@..@2||11||@|11|21|2||+..@+@..@|11|1||21|+.@@@@..@|2++.@1|",
"|@..+.@|.@|1|1||||1211|||11|.+@|+.@+.@212122|1|..@|12+@1||||.@||",
"@..1|@|1|.@||21122||1|||1|2|.@|1.@|+.@|||111|||@@11||.@|2|11+@|1",
"..1|1|||1|.1222||||12211||22|111|@1||||||||1|1|1|||2||1|122|||21",
"|||2111|2|112|1||11||12|||11122|1||211|112||211|||11|11|||1||112",
"1|1||||11||||111111||12221121|||||1|||22|||||1111|1|1||1|||1||||",
"||11122|11212||12||||11||||||1|1||1||11|2211||2|2|1||||||11211|1",
"2121||||||211||||1211|1|22||1||21||2|2|1|||122111||211|12||||||1",
"1|1||11221||||11||1|22|||122221||||111|1|2||||||||1112||11|2||1|",
"|22|11|1211212|22111212111211||||2||12|2||112211|1||121|||1111||"};
