/* XPM */
static char * trees_1_xpm[] = {
"64 64 235 2",
"  	c #000000",
". 	c #010100",
"+ 	c #030301",
"@ 	c #020201",
"# 	c #080603",
"$ 	c #090703",
"% 	c #060502",
"& 	c #040301",
"* 	c #070502",
"= 	c #010000",
"- 	c #030201",
"; 	c #181408",
"> 	c #161207",
", 	c #413018",
"' 	c #28200C",
") 	c #040401",
"! 	c #191408",
"~ 	c #251D0B",
"{ 	c #050302",
"] 	c #050402",
"^ 	c #241D0B",
"/ 	c #141006",
"( 	c #302810",
"_ 	c #020100",
": 	c #080602",
"< 	c #2D230E",
"[ 	c #020101",
"} 	c #2E260F",
"| 	c #0A0803",
"1 	c #010101",
"2 	c #3B2C15",
"3 	c #0B0803",
"4 	c #050401",
"5 	c #020200",
"6 	c #241E0C",
"7 	c #050201",
"8 	c #1D0605",
"9 	c #200605",
"0 	c #27200D",
"a 	c #1B0404",
"b 	c #9F1919",
"c 	c #220706",
"d 	c #2A0707",
"e 	c #0E0A05",
"f 	c #352713",
"g 	c #1F0505",
"h 	c #070602",
"i 	c #2D0707",
"j 	c #211A0B",
"k 	c #2C240E",
"l 	c #1D190A",
"m 	c #120E05",
"n 	c #2E2610",
"o 	c #2A230E",
"p 	c #2F2410",
"q 	c #29220E",
"r 	c #312412",
"s 	c #382A15",
"t 	c #201A0A",
"u 	c #090702",
"v 	c #302611",
"w 	c #1E1809",
"x 	c #26200D",
"y 	c #0D0B04",
"z 	c #372914",
"A 	c #251F0C",
"B 	c #251E0B",
"C 	c #3C2E16",
"D 	c #2D260E",
"E 	c #302411",
"F 	c #392A15",
"G 	c #392C14",
"H 	c #211B0A",
"I 	c #120E06",
"J 	c #302610",
"K 	c #3C2C16",
"L 	c #342712",
"M 	c #231C0B",
"N 	c #28200D",
"O 	c #0B0904",
"P 	c #0E0C03",
"Q 	c #312612",
"R 	c #352A12",
"S 	c #251B0D",
"T 	c #392B15",
"U 	c #221B0A",
"V 	c #3A2C15",
"W 	c #090803",
"X 	c #261D0E",
"Y 	c #322911",
"Z 	c #291E0F",
"` 	c #382A14",
" .	c #261F0B",
"..	c #221C0A",
"+.	c #1F1909",
"@.	c #181307",
"#.	c #2D2310",
"$.	c #2B230E",
"%.	c #271E0E",
"&.	c #211A0A",
"*.	c #2E240F",
"=.	c #251D0C",
"-.	c #271F0C",
";.	c #352813",
">.	c #1B1508",
",.	c #261E0E",
"'.	c #372B13",
").	c #2A220D",
"!.	c #261F0C",
"~.	c #060402",
"{.	c #28210D",
"].	c #261E0C",
"^.	c #29210D",
"/.	c #28210C",
"(.	c #3A2D15",
"_.	c #2D230F",
":.	c #2F270F",
"<.	c #340100",
"[.	c #1A0100",
"}.	c #330100",
"|.	c #29210C",
"1.	c #530000",
"2.	c #DE0000",
"3.	c #420100",
"4.	c #FF0000",
"5.	c #690100",
"6.	c #3C2D16",
"7.	c #27200C",
"8.	c #0F0C05",
"9.	c #190000",
"0.	c #070100",
"a.	c #6A0100",
"b.	c #0D0A04",
"c.	c #151008",
"d.	c #342911",
"e.	c #181108",
"f.	c #0F0C06",
"g.	c #3B2D15",
"h.	c #191209",
"i.	c #442F17",
"j.	c #261B0D",
"k.	c #402D16",
"l.	c #322311",
"m.	c #4F381B",
"n.	c #3B2B14",
"o.	c #3E2C15",
"p.	c #2F2110",
"q.	c #2A200F",
"r.	c #3E2F17",
"s.	c #493418",
"t.	c #513C1C",
"u.	c #4C371B",
"v.	c #583E1E",
"w.	c #4A3519",
"x.	c #392B13",
"y.	c #583E1F",
"z.	c #4C381A",
"A.	c #543C1D",
"B.	c #5B401F",
"C.	c #5D4120",
"D.	c #5C4120",
"E.	c #593E1F",
"F.	c #573F1E",
"G.	c #533B1C",
"H.	c #4D3A1B",
"I.	c #382B14",
"J.	c #332712",
"K.	c #302710",
"L.	c #3B2E14",
"M.	c #4E381A",
"N.	c #433016",
"O.	c #553D1D",
"P.	c #4D371A",
"Q.	c #473418",
"R.	c #533D1D",
"S.	c #523A1C",
"T.	c #4C3619",
"U.	c #51391B",
"V.	c #403015",
"W.	c #443216",
"X.	c #423016",
"Y.	c #412F15",
"Z.	c #413017",
"`.	c #49351B",
" +	c #4F3A1B",
".+	c #593F1E",
"++	c #49361A",
"@+	c #352811",
"#+	c #4E391B",
"$+	c #533B1D",
"%+	c #4F391C",
"&+	c #5A401F",
"*+	c #543D1D",
"=+	c #31260F",
"-+	c #322610",
";+	c #4C371A",
">+	c #443219",
",+	c #4B3619",
"'+	c #423216",
")+	c #473518",
"!+	c #4D391B",
"~+	c #4B371A",
"{+	c #473317",
"]+	c #3D3015",
"^+	c #453518",
"/+	c #382D13",
"(+	c #3C2F15",
"_+	c #2E240E",
":+	c #593E1E",
"<+	c #4D381B",
"[+	c #4D381A",
"}+	c #433116",
"|+	c #4E3A1B",
"1+	c #4B3618",
"2+	c #553E1D",
"3+	c #483418",
"4+	c #473318",
"5+	c #583F1E",
"6+	c #4A3719",
"7+	c #503B1C",
"8+	c #453319",
"9+	c #533C1D",
"0+	c #4C3719",
"a+	c #4A3518",
"b+	c #332A11",
"c+	c #4E371A",
"d+	c #573E1E",
"e+	c #4A381A",
"f+	c #4F391B",
"g+	c #3F3015",
"h+	c #4B3519",
"i+	c #4B381A",
"j+	c #4A371A",
"k+	c #493719",
"l+	c #503B1B",
"                                                                                  . . . .     . . . . . . . . . . . . . . . . . ",
"                                                                                . . . . . . . . . . . . . . . . . . . . . . . . ",
"                                                                          . . . . . . . . . . . . . . . . . . . . . . . . .     ",
"                . .                                             . . + . . . . . . . . . . . . . . . . . . . . . . . . . . .     ",
"            . . . .                                     . . . . . . . . .       . . . . . . . . . . . . . . . . . . . . .       ",
"        . . . . @ .                                   . . .     . . . . .       . . . . .   . . . . . . . . . . . . . . . . . . ",
"    .   . . . . . .                               #         . . . . . . . . . . . . . . .     . . . . . . . . . . . . . . . . . ",
"  . . $ . . . . . .                               @         . . . . . . . . . . . . . . .       . . . . . . . . . . . . . . . . ",
"  . % & . . . . . .                           * & =         . . . . . . . . . . . . . . .               . . . . . . . . . . . . ",
". . . . . . . . . . . . . .                 . - ; >         . . . . . . . . . . . . . . .           , ' . . . . . . . . . . . . ",
". . . . . . . . . . . . . .                 ) % ! ~         . . . . . . . . . . . . .               '   . . . . . . . . . . . . ",
". . . . . . . . . . . . . .               { + ] @ ^ /                 . . . . . . . .             ( '       . . . . . . . . . . ",
". . . . . . . . . . . . . .               . _ @   : <                   . . . . .           (     ( '       . . . . . . . . . . ",
". . . . . . . . . . . . . .     &       [ & &       } |             (   . . . . . .           ' , '       . . . . . . . . . . . ",
". . . . . . . . . . . . . .     [ [ 1     .         ' 2           ( '   . . . . . .             , '       . . . . . . . . . . . ",
". . . . . . . . . . . . . .   . .   ] . = %         ' ( ,       , '     . . . . . 3             ( '       . . . . . . . . . .   ",
". . . . . . . . . . . . . . . )     - . @             ' ,       ( '     . . . . . .           , '         . . . . . . . . . .   ",
". . . . . . . . . . . . . . .   . . _ . -             ' (     , '     . # . . . . . .         ( '         . . . . . . . . .     ",
". . . . . . . . . . . . . . = = [ . . . . .           ' (     , '   . . . . . . . . .         ' '   . . . . . . . . . . . .     ",
". . . . . . . . . . . . . . . ] @ . . . . .           ' (     ( '   . . . . . . . . .         ' ' . . . . . . . . . . . . .     ",
". . . . . . . . . . . . . . . - @ . . . .       ,       ( ,   ( '   . . . . . . . . .     (   ( ' . . . . . . . . . . . . .     ",
". . . . . . . . . . . . .   4 5 .     . .       ( (     ( , ( ( '   . . . . . . . .         , ( ' . . . . . . . . . . . . . .   ",
". . . . . . . . ( . . . .     ] + . . . .       ' , ,   ( , ( '       . . . . . . .           ( ' . . . . . . . . . . . . . .   ",
". . . . . . . . 6 ( . . .     ] 7 8 . 5 9         ' (   ( ' ' '       . . . . . . .           ' '   . . . . . . . . . . . . .   ",
". . . . . . . . . 0 6 . .     = a b c c b d .     ' (   ( ( ' '       . . . . . . .         ( ( '   . . . . . . . . . . . . .   ",
". . . . . . . . e f ( . .     .   g ) h i @         ' , ( ' ( '       . . . . . . .         , ( '   . . . . . . . . . . . . .   ",
". . . . . . . . . , j ( (     -   . ] * .           ' ( ( ( '         . . . . . . . .       , '     . . . . . . . . . . . . . . ",
". . . . . . . . . . , k l ]   -   ) 4 m             ' , ( ' '         . . . . . . . .       , '       . . . . . . . . . . . . . ",
". . . . . . . . . . f n o -   @ . & + p     q q     ' ( ( ' '         . ' . . . . . .       ( '       . . . . . . . . . . . . . ",
". . . . . . . . . . r s k t u @ . + ) v w x } y       ' ' ' '       . u t . . . . . . ,     , '       . . . . . . . . . . . . . ",
". . . . . . . . . . . z A B u % - & % C D ( 6         ' ( ' '       . E w . . . . . . ( '   ( '       . . . . . . . . . . . . . ",
". . . . . . . . . . . F G ' H % h - I J ( (           ' ( ' '       K L . . . u .     ' ( ( ' '         . . . . . . . . . . . . ",
". . . . . . . . . . . . , M N [ O P Q R '               ( ' '     S T . . . ' U .       ' ( ( '         . . . . . . . . . . . . ",
". . . . . . . . . . . . r V ' 6 W X C Y ^               ( ' ' : Z `  ...+.' @.5 .         , ' '         . . . . . . . . . . . . ",
". . . . . . . . . . . .   #.$.' [ %.C ( '           ' , ( ( ' &.*.=.' -.M u . . . .       , '           . . . . . . . . . . . . ",
". . . . . . . . . . . .   ;.2 k >.,.'.'               ' ( ( ' U ).!.. u . . . . . .       , '   (       . . ~.- . . . . . . . . ",
". . . . . . . . . . . .     , {. .].#.'   . . . .       , ( ' ^.' h . . . . . . . .       ( ( ' '       . . . . . . . . . . . . ",
". . . . . . . . . . . .     C 2 /.(._.' . . . . . .     , ( :.'     . . . . . . . .     , ( ( '         . . . . . . . . . . . . ",
"  . . . . . . . . . .       % Y } *.' ^ . . . . . .     ( ( ' h     . . . . . . .       ( ' '           . . . . . . . . . . . . ",
"  . . . . . . . . . .         , , } ' ^ . . . . . .     , ( '         <.[.. }.. .       ( ( '           . . . . . . . . . . . . ",
"  . . . . . . . . . .         , ( k |.H # . . . . .     ( ' '     . 1.2.3.}.4.5..       , ' '             . ) . . . . . . . .   ",
". . . . . . . . . . .           , 6.7.' 8.            , ( ' '       9.3.0.. a.. .       ( (           . . . % . . . . . . . .   ",
". . . . . . . . . . .           , ( ' B b.            , ( ( ' '       . . . . . .     , ( '           . . . . . . . . . . . .   ",
". . . . . . . . . . .           , ( ' ^ /             , , ( ' '       . . . . . .     ( ( ( '         . . . . . . . . . . .     ",
". . . . . . . . . . .         c.d.( ( M /             , ( ( ' '         . . . . .     , ' ' '         . . . . . . . . . . .     ",
". . . . . . e.e.. . .       f.g.C ( ' / /             ( ' ' ( ' ' '   h.i.j.. . .     , ( '           . . . . . . . . . . .     ",
". . y y k.l.m.n.o.i.i.p.p.q.(.g.r.( ' / /       s.t., ' t.s., ( ' ' ' u.v.w.x.y.z.  , ( ( ( '         . . $ h & % 4 W . . .     ",
"t.  , A.B.C.C.C.D.E.C.F.G.H.I.J.K.( ( ' ^   C.s., ( ' s.t.t.( , ( ' ' L.M.N.O.P.Q., ( ' ' ( ' ' s.C.t.s.R.S.T.U.V.W.X.Y.Z.    t.",
"t.s.C.`. +.+.+v.D.s.s.s.s., ++, ( ( ' ' N.t.s.s.t.s.s.s.s.s.s.s.s.s.t.L.@+s.s.t.s.' ' s.t.s.( ( ' s.s.s.#+$+s.U.V.s.G.G.s.t.C.C.",
"s.F.%+&+*+=+-+-+R.C.s.C.s.s., ( ( ( ( ( ' t.C.s.t.t.s.t.t.s.s.t.G.s.;+s.t.t.t.C.C.s.s.s.s.s.s.s.s.s.C.t.>+;+t.,+'+,+s.s.C.s.s.t.",
"C.s.)+)+( ( ( ' C.s.t.s.t.s., ( ' ( ( ( ' s.s.t.C.C.t.C.C.t.s.!+~+{+S.s.C.s.t.s.t.s.t.s.s.t.s.s.C.s.t.s., ]+^+/+/+(+R _+s.s.s.s.",
"t.s.v., ( ( ' ( ' s.t.s.s., ( ' t., ' ' ( ' ' s.s.s.t.C.s.:+s.,+<+:+G.t.[+ +t.s.t.t.s.t.s.C.t.t.s.t.s., ( ( ( ( ( ( ( ( ' C.s.s.",
"s.t.^+++( ( ( ( ' s.C.s., ( ' ' s., ' s.( ( ' t.t.s.C.s.C.P.}+;+|+C.v.;+1+P.C.t.s.t.C.t.t.s.s.s.s.( , ( ( ( ' ( ' ( ( ( ' ' s.t.",
"s.C., ( ( ( ( ( ' t.s.s.( ' s.t.s.' s.t.s.s.( ' s.s.t.t.2+3+4+,+.+5+;+6+[+w.,+,+s.t.C.t.s.t.s.t.( , ( ' ( ( ( ' ' ' ( ( ( ' C.t.",
"t.7+8+( ( ( ' ( ( ' C.s.s.t.t.s.s.' s.t.t.s.C.t.s.C.s.s.9+v.R.v.t.#+[+|+s.;+0+t.s.t.s.s.C.t.s., ( ' ' ' ' ( ( ' s.C., , ( ' t.s.",
"a+'+b+( , ( ' s.( ' s.t.s.t.s.s.s.s.t.C.t.t.s.s.s.t.,+c+v.B.B.d+[+e+t.t.s.t.f+t.C.t.C.C.s.t.s.( ( ' s.t.C., ' t.s.s.s.s.( ' s.s.",
"g+]+( t.s.' s.t.s.( ' s.s.C.t.t.C.C.s.s.t.s.s.s.t.s.h+c+B.G.a+s.i+i+t.j+Q.s.;+;+s.t.t.t.s.s.s.' ' t.t.s.s.( ' s.C.s.t.t., ' s.t.",
"k+( t.s.t.s.s.s.t.s.( t.C.C.C.s.s.s.s.t.C.C.t.t.s.s.G.T.s.l+t. +s. +[+s.s.,+7+,+s.s.s.t.s.t.s.t.s.s.s.C.s.s.t.s.t.C.C.s.s.s.C.t.",
"[+s.s.C.t.t.t.s.C.s.t.t.C.s.t.s.s.t.t.s.s.t.C.s.s.s.[+,+w.P.s.s.[+,+a+C.t.t.;+t.t.C.,+ +C.t.t.s.s.s.t.t.s.t.t.s.s.s.t.s.s.t.t.C.",
"t.s.t.s.s.s.s.t.t.s.s.s.s.t.t.t.t.t.t.s.s.t.C.C.C.t.[+G. +s.s.s.s.s.t.s.s.s.C.C.s.s.s.s.s.t.t.t.t.s.t.s.t.s.s.t.s.s.s.t.s.s.s.s.",
"s.s.t.t.t.C.C.s.t.t.C.t.C.s.s.t.C.s.s.s.s.t.t.s.s.s.s.s.s.t.s.t.s.s.t.s.s.t.t.s.C.C.t.t.s.,+&+s.C.s.t.s.s.s.s.s.s.t.t.C.t.t.s.t.",
"C.t.C.t.s.s.s.s.s.s.C.t.t.s.s.s.s.t.C.t.t.s.t.s.C.C.s.s.t.s.s.C.t.s.s.C.s.C.s.t.s.s.s.t.C.C.t.t.t.s.s.C.t.t.s.t.C.s.s.s.s.s.s.t.",
"t.s.t.s.s.t.t.C.C.t.s.s.s.s.t.t.s.s.t.s.C.C.s.s.s.t.C.C.C.C.t.s.s.s.s.t.t.t.s.t.s.C.s.s.s.s.s.s.s.s.t.t.t.C.s.s.t.t.s.C.s.s.t.s.",
"s.C.C.s.t.t.s.t.C.t.t.C.t.C.s.C.C.t.t.t.C.t.C.t.t.t.C.t.t.s.s.s.s.C.s.s.t.C.s.C.s.s.t.t.C.C.t.t.s.t.s.s.t.C.t.s.s.s.t.t.t.t.s.s."};
