/* XPM */
static char * trees_2_xpm[] = {
"64 64 255 2",
"  	c #000000",
". 	c #181408",
"+ 	c #302810",
"@ 	c #21180C",
"# 	c #080603",
"$ 	c #1D180A",
"% 	c #2C240E",
"& 	c #1D1709",
"* 	c #120F06",
"= 	c #040301",
"- 	c #171207",
"; 	c #241D0B",
"> 	c #1B1608",
", 	c #20190A",
"' 	c #221B0A",
") 	c #241E0C",
"! 	c #2B240E",
"~ 	c #221C0A",
"{ 	c #161107",
"] 	c #090803",
"^ 	c #261E0C",
"/ 	c #26200D",
"( 	c #201A0A",
"_ 	c #2E260F",
": 	c #27200D",
"< 	c #1E1809",
"[ 	c #010100",
"} 	c #2C250F",
"| 	c #28220D",
"1 	c #231C0B",
"2 	c #29220E",
"3 	c #1A1609",
"4 	c #201B0B",
"5 	c #070602",
"6 	c #1F190A",
"7 	c #110E05",
"8 	c #020100",
"9 	c #080602",
"0 	c #2A230D",
"a 	c #211A0A",
"b 	c #261F0D",
"c 	c #1F1909",
"d 	c #070502",
"e 	c #221C0B",
"f 	c #211B0A",
"g 	c #2C240F",
"h 	c #1F1809",
"i 	c #1E190A",
"j 	c #1A1408",
"k 	c #1E1909",
"l 	c #1E1709",
"m 	c #151106",
"n 	c #2A230E",
"o 	c #181307",
"p 	c #231D0B",
"q 	c #181407",
"r 	c #030300",
"s 	c #040400",
"t 	c #0C0C01",
"u 	c #020200",
"v 	c #030201",
"w 	c #060000",
"x 	c #020000",
"y 	c #010000",
"z 	c #211C0B",
"A 	c #1C1709",
"B 	c #090703",
"C 	c #2F270F",
"D 	c #2A220D",
"E 	c #110E06",
"F 	c #1D1708",
"G 	c #251E0B",
"H 	c #020201",
"I 	c #261F0C",
"J 	c #1D1809",
"K 	c #29210D",
"L 	c #060502",
"M 	c #27200C",
"N 	c #161207",
"O 	c #050402",
"P 	c #211B0B",
"Q 	c #606109",
"R 	c #171802",
"S 	c #78790B",
"T 	c #0D0B04",
"U 	c #29220D",
"V 	c #292A04",
"W 	c #D6D714",
"X 	c #84850C",
"Y 	c #E9EB16",
"Z 	c #2F2F04",
"` 	c #0C0A04",
" .	c #060601",
"..	c #1A1508",
"+.	c #0B0804",
"@.	c #251D0B",
"#.	c #0E0C04",
"$.	c #0E0A05",
"%.	c #251A0C",
"&.	c #372712",
"*.	c #3A2A13",
"=.	c #1E150A",
"-.	c #27210D",
";.	c #140F07",
">.	c #0F0A05",
",.	c #2C1F0E",
"'.	c #422F16",
").	c #463217",
"!.	c #453117",
"~.	c #493418",
"{.	c #20180A",
"].	c #0E0B04",
"^.	c #3B2B14",
"/.	c #3B2A13",
"(.	c #473217",
"_.	c #453017",
":.	c #473317",
"<.	c #2B1F0E",
"[.	c #100C05",
"}.	c #020101",
"|.	c #3F2D15",
"1.	c #453217",
"2.	c #4A3519",
"3.	c #533B1C",
"4.	c #5D4120",
"5.	c #553C1D",
"6.	c #483318",
"7.	c #140E06",
"8.	c #191208",
"9.	c #161007",
"0.	c #302710",
"a.	c #2E2610",
"b.	c #271E0C",
"c.	c #26200C",
"d.	c #4F3A1B",
"e.	c #4E381A",
"f.	c #4B3619",
"g.	c #4A3518",
"h.	c #4C361A",
"i.	c #4C3619",
"j.	c #553D1D",
"k.	c #4A3619",
"l.	c #4D381A",
"m.	c #402D15",
"n.	c #3E2C14",
"o.	c #271F0C",
"p.	c #352B12",
"q.	c #362912",
"r.	c #302510",
"s.	c #302410",
"t.	c #201A0B",
"u.	c #2D250F",
"v.	c #382A13",
"w.	c #412F15",
"x.	c #513C1C",
"y.	c #533D1D",
"z.	c #523B1C",
"A.	c #523A1C",
"B.	c #583D1E",
"C.	c #583F1E",
"D.	c #4C3719",
"E.	c #503B1C",
"F.	c #493519",
"G.	c #4E391A",
"H.	c #4F3B1B",
"I.	c #352911",
"J.	c #392A12",
"K.	c #423116",
"L.	c #2F2710",
"M.	c #4C371A",
"N.	c #523D1C",
"O.	c #5A3F1F",
"P.	c #533A1C",
"Q.	c #553E1D",
"R.	c #563E1D",
"S.	c #543D1D",
"T.	c #483518",
"U.	c #583F1F",
"V.	c #523C1D",
"W.	c #4E3A1B",
"X.	c #372912",
"Y.	c #443317",
"Z.	c #3C2C13",
"`.	c #403015",
" +	c #433116",
".+	c #443116",
"++	c #453218",
"@+	c #443216",
"#+	c #433317",
"$+	c #4C381A",
"%+	c #563E1E",
"&+	c #573E1E",
"*+	c #483418",
"=+	c #523C1C",
"-+	c #4D371A",
";+	c #583E1E",
">+	c #503A1B",
",+	c #4E391B",
"'+	c #5C4020",
")+	c #423217",
"!+	c #4B3519",
"~+	c #3F3015",
"{+	c #3F2F15",
"]+	c #413016",
"^+	c #593E1F",
"/+	c #120E06",
"(+	c #463218",
"_+	c #4F3A1A",
":+	c #593F1E",
"<+	c #4F391A",
"[+	c #433216",
"}+	c #513A1C",
"|+	c #4F381A",
"1+	c #543B1C",
"2+	c #50391B",
"3+	c #4E381B",
"4+	c #543C1D",
"5+	c #453216",
"6+	c #4B361A",
"7+	c #413015",
"8+	c #413018",
"9+	c #28200C",
"0+	c #4B371A",
"a+	c #573F1E",
"b+	c #543B1D",
"c+	c #5C401F",
"d+	c #473518",
"e+	c #463317",
"f+	c #443217",
"g+	c #4D391B",
"h+	c #5B401F",
"i+	c #563D1D",
"j+	c #503B1B",
"k+	c #593E1E",
"l+	c #573D1D",
"m+	c #523A1B",
"n+	c #4E371A",
"o+	c #3D2E14",
"p+	c #533C1D",
"q+	c #563C1D",
"r+	c #513B1B",
"s+	c #51391B",
"t+	c #593F1F",
"u+	c #573D1E",
"v+	c #3D2D14",
"w+	c #4D361A",
"x+	c #4A3618",
"y+	c #5C4120",
"z+	c #4F391B",
"A+	c #553B1D",
"B+	c #46331A",
"C+	c #463318",
"D+	c #473418",
"E+	c #392D13",
"F+	c #513B1C",
"                                                                                                                                ",
"                                                                                                                                ",
"                                                                                                                                ",
"                                                                                                                                ",
"                                                                                                                                ",
"                                                                                                                                ",
"                                                                                                . .                             ",
"                                                                                              . +                             @ ",
"            #                                                                                 $ % &   *                         ",
"            =                                                                                 + - ; * >                         ",
"                                                                                              + , ' >         . )               ",
"                                                                                            $ ! > ~ {       ] ^ ;               ",
"                                                                                            / % ( ;         _ &                 ",
"                                                                                            / % ~ >       : ( <                 ",
"                                [                                           ] :             } } ; >     | 1 {                   ",
"                                                                            . .             } 2 ; *     ^ >                     ",
"                                                                            . 3 &           ! 4 & 5 . 6 (                       ",
"                                                    7 7                     . . ; 8         + . < 9 0 1 5                       ",
"                                                    7 7                       + a & *       + : - b c                           ",
"                                                    d >                       + 1 ( e 5     + : 0 *                             ",
"                                                    d >                 [     ) 3 f e *     + g ; *                             ",
"                                                    d >                         + ; ; <     + _ ;                               ",
"                                                    7 7 d h                     . e f ( *   + i &                               ",
"                                                    7 7 7 j                       + e f ;   + k *                               ",
"                                                      > '                         . k 1 f - ! k *                               ",
"                                        . .           l m                         ] : * 1 ; n ; >                               ",
"                                        . .           a o                           . . ) n g p q                 r             ",
"                                        . .           '                               i } _ 2 ; *       s t         u           ",
"                                        . .         d < v     w   x   y   y           z } + A ;                   t             ",
"                                        ] :       ] : ' B                             ] C D ;                                   ",
"          [                               : E     ] 1 F 5                             n _ ; < 5                                 ",
"                                            : $   { 1                                 + G & *               H                   ",
"                                              ! I a J                               ] K ; a *               L                   ",
"                                              ] M 1                                 ; ; e N                 O                   ",
"                                              n ' J                               P G ; , >                 [ [ y               ",
"                    Q R     S               T U G                               ] D ; 1 *                                       ",
"                  V W X   X Y Z             T G <                               n U ; < *                                       ",
"      ` 5          .V     R Q               . G ..                              ) % ; ;                                         ",
"      +.=                                   $ @.#.                              + 0 ; >                                         ",
"                                            _ @.d                             . : D ; &                                         ",
"                            $.$.%.&.*.=.` -.+ ' d                             . ) K p ;                                         ",
"        ;.O [   =   >.  ,.'.).!.~.'.~.!.{.i ) c ].                            . ) _ ; &                                         ",
"        O H y = ;.^.&./.'.*.!.(.~.'._.:.~.~.'.<.[.                            . } + n & 5                     ) + 5 &           ",
"      }.  >.=.%./.).|.~.'.~.~.1.2.1.3.4.5.).~.6.!./.%.$.$.$.$.$.$.$.$.$.7.8.9.; 0.+ a.b.& H                   n + c.~ {         ",
"      H   %.~.!.~.~.~.~.~.d.d.e.f.~.g.h.i.j.k.l.f.m.&.~.~.!.'.n.n.:.6.~.).%.; o.! + p.q.r.s..               t.u.+ 0 1 1         ",
"  ( v./.w.~.~.~.~.).d.x.x.y.z.A.B.C.3.f.D.E.z.F.G.x.x.H.2.l.k.g.f.~.6.&.I.; U U ! + + :.G J.K.$.          = u.L.+ D ; ;         ",
"  ~.~.~.~.~.1.M.M.~.f.z.N.4.O.D.P.x.Q.R.S.E.l.~.~.l.~.T.U.V.d.W.O.U.l.o.; M M X.i.Y.+ + @.Z.1.`. +.+ +    H + + + u.1 '         ",
"x.).++@+#+W.x.g.$+x.x.%+x.y.C.&+*+&+=+-+;+V.D.~.2.~.*+l.>+,+W.W.&+'+=+X.v.M.d.d.'+'+'+)+_ o.!+~+{+`.]+^+;.` + + + + ; ; /+    x.",
"x.~.(+d.H.,+_+l.-+d.%+G.~.&+O.:+<+[+}+~.3.O.|+1+~.~.f.E.E.G.l.2+B.'+3+,+&+^+'+^+'+A.4+G.5+M % 6+7+{+]+2.+ 8++ + + + + 9+%.x.4.4.",
"~.l.$+0+$+~.f.y.%+a+~.i.!+b+c+O.l.G.e.f.l.5.1+~.D.E.f.x.x.~.~.x.4.~.M.~.l.x.x.4.4.~.~.~.l.l.d+f.*+e+f+g+8++ + + + + + 9+4.~.~.x.",
"4.~.d+$+l.x.y.=+4.~.g.5.h+i+h+c+O.b+e.d.E.f.i.~.2+h+x.4.4.x.~.8+8+9+9+~.4.~.x.~.x.~.x.j+l.x.~.~.4.~.y.~.8++ + + + + + 9+~.~.~.~.",
"x.~.8+x.*+f.k+-+l+z.4.3.5.5.m+k+-+a+,+n+~.f.G.,+3.-+x.4.~.~.~.+ 8++ + 9+~.x.x.~.x.x.f.x.~.4.x.x.~.x.~.8++ + + + + + + + 9+4.~.~.",
"~.x.o+M.l.-+%+p+y.x.q+3.3+c+1+G.V.R.i.2.~.~.).!+!+k+4.~.x.~.+ + + + 9+9+~.4.4.x.~.x.4.x.x.~.~.~.~.+ 8++ + + 9++ 9++ + + 9+9+~.x.",
"~.4.8+1.d.x.=+p+O.f.~.k+r+c+C.&+s+1+4.t+h+3.u+v+s+~.h+y.x.8+8+9+8++ + 9+~.~.~.~.~.x.4.x.~.x.~.x.+ 8++ 9++ + + 9+9+9++ + + 9+4.x.",
"2.f.w+x+f.f.f.2.4.1.4.-+S.h+y+O.k+2+-+b+5.4.n+~.~.4.~.k+8++ + 9+8+9++ + 9+~.x.x.~.x.~.~.4.x.~.8++ 9+9+9+9++ + 9+~.4.8+8++ 9+x.~.",
"~.i.k+l+z+d.d.f.u+A+S.S.&+>+~.~.~.~.f.~.2.M.4.3.-+x.x.~.4+B+9+~.8++ 9+8++ 9+4.x.4.x.4.4.~.x.~.+ + 9+~.x.4.8+9+x.~.~.~.~.+ 9+~.~.",
"w.C+k+O.z+D+l.M.~.3.4+d.,+3.f.f.-+~.~.~.d.~.~.3.h+k+4.3.E+;+-+x.+ 9+~.8++ 9+~.~.~.x.x.x.~.~.~.9+9+x.x.~.~.+ 9+~.4.~.x.x.8+9+~.x.",
"o+f.n+n+F+g.g.~.g.~.1.x.h+4.k+~.~.~.~.x.4.4.x.x.~.-+4.4.k+a+4.x.~.9+x.~.~.~.~.~.~.~.~.x.~.x.~.x.~.~.~.4.~.~.x.~.x.4.4.~.~.~.4.x.",
"~.~.~.4.x.x.x.~.4.~.x.x.4.~.x.~.~.x.x.~.~.x.4.~.~.~.x.x.x.4.4.~.x.~.~.4.x.x.~.x.x.4.~.~.4.x.x.~.~.~.x.x.~.x.x.~.~.~.x.~.~.x.x.4.",
"x.~.x.~.~.~.~.x.x.~.~.~.~.x.x.x.x.x.x.~.~.x.4.4.4.=+=+4.x.~.~.~.~.~.x.~.~.~.4.4.~.~.~.~.~.x.x.x.x.~.x.~.x.~.~.x.~.~.~.x.~.~.~.~.",
"~.~.x.x.x.4.4.~.x.x.4.x.4.~.~.x.4.~.~.~.~.x.x.~.!+P.l+s+~.x.~.x.~.~.x.~.~.x.x.~.4.4.x.x.~.~.4.~.4.~.x.~.~.~.~.~.~.x.x.4.x.x.~.x.",
"4.x.4.x.~.~.~.~.~.~.4.x.x.~.~.~.~.x.4.x.x.~.x.~.4.c+c+s+x.~.~.4.x.~.~.4.~.4.~.x.~.~.~.x.4.4.x.x.x.~.~.4.x.x.~.x.4.~.~.~.~.~.~.x.",
"x.~.x.~.~.x.x.4.4.x.~.~.~.~.x.x.~.~.x.~.4.4.~.~.!+Q.4.4.4.4.x.~.~.~.~.x.x.x.~.x.~.4.~.~.~.~.~.~.~.~.x.x.x.4.~.~.x.x.~.4.~.~.x.~.",
"~.4.4.~.x.x.~.x.4.x.x.4.x.4.~.4.4.x.x.x.4.x.4.x.x.x.4.x.x.~.~.~.~.4.~.~.x.4.~.4.~.~.x.x.4.4.x.x.~.x.~.~.x.4.x.~.~.~.x.x.x.x.~.~."};
