/* XPM */
static char * trees1_xpm[] = {
"64 64 7 1",
" 	c #000000",
".	c #032504",
"+	c #113212",
"@	c #051505",
"#	c #493418",
"$	c #513C1C",
"%	c #5D4120",
"                                                          .     ",
"                                           +             +@     ",
"                                           +@     .++    +@     ",
"                                  .        .@     @..+   .@     ",
"        +                         .       +@       @@.   @@     ",
"        .                         @+      .@     @@@..   .@     ",
"        .                +        @.     .@         @.+ +.@     ",
"   +   +@                .        @.+   +.@         @..+..@    +",
"  ++  +.@              +..         @. +..@           @.....@  +.",
"  +.  .@   +          .@.@         @..+@.@        +@ @.....@  .@",
"  +.@ .@  .+          ..@           @....@        @   +.+...@..@",
"  +.@ .@ @.++        +..@            .@.@        .@   +......@.@",
"  +@@ .@ @@.+        .@@  +          +..@     .  .@   .+.+....@ ",
"  +@@ .@  @..   +   +.@   .       .  .@@       @+@    .+.+...@  ",
"  +.@ .@  @@.+  .++ .@    @+     .@  ..@        +@    +......@  ",
"  +@@ @    @.. .+.+..@    @.+   +@   +.@@@      .@    +.+.@@@@  ",
"+ ..@ @     @.+.+.@.@      @+   .@   ....@     +@     +++....@  ",
"+ +..@@     @.......@      @.  +@   +.@@.@     .@     +.....@@  ",
".+...@@      @..+.@@       @.  +@   ...@@@     @@     +++...@@  ",
".....@@  .   @.....@       @.  .@   +@..@@     @@     ......@   ",
"@.....@ .@    @.....@   +   .+ .@   ....@    . .@ .+  +...@.@   ",
"@.+...@..@    @.....@   ..  .+..@    .@@@     +.@ @.  ++..@@@   ",
"@.++....@      ....@@   @++ .+.@     ..@@      .@ @@.+......@   ",
"@@++...@@      +....@    @. .@@@    ....@      @@  @..+...@@    ",
" @.+...@@      .....@    @. ..@@    +.@.@     ..@  @@.+....@    ",
"  .....@       ....@      @+.@.@    ...@@     +.@   @....@.@    ",
"  ++..@@       .+..@      @...@      ..@      +@    @...@..@    ",
"  ++...@    .+ +..@@      @+.@@      +.@      +@    @....@@     ",
"  ++.@@@    @. +..@@      @..@@      ++@@@    .@     +...@@     ",
"  ....@@@    @+....@@@     @@@@      ..@@  +  +@     +....@@    ",
" .+..@.@@    @+++....@     @.@@      +@@   .@ .@     ...@@.@    ",
" ++....@      @....@.@     @.@@      .@@   @..@@     +...@@     ",
" ++..@@@   .   +....@       .@@    @+..@    @..@     ++...@     ",
"  +....@@ +@   .....@       .@@     @.@@     +@@     ......@    ",
"  ++...@@ .    +....@     @+..@      +.@     +@       ++..@@    ",
"  +.++....@    .+..@       @..@ .    ..@     +@ .     ++...@ .  ",
"   ++.....@    ++..@        +.@+@    .@@@    ..@@     ...@...@  ",
"   ...@..@     +..@@        +..@     +@.@   +..@      +.+..@@   ",
"   +....@@     ....@        ..@      +.@@   .@@       +.....@   ",
"   +...@@      ++..@ .      +.@      ..@    ..@       +....@    ",
"  +.....@      +....+@      .@@     +..@    +@@       .+...@    ",
"  +...@@        ++..@      +.@@     .@.@    ..        ....@@    ",
"+ ....@@        +...@      +..@@    .@.@   +.@        +.+.@@    ",
".+.+.@.@        +.@@       ++.@@    ..@@   ...@       +.+.@@    ",
"@..+.@.@        ...@       +..@@     +@@   +@@@       +....@    ",
" @....@@@       +.@        .@@.@@@  ...@   +.@       +.....@    ",
"  ......@       +.@     #$+@$#+.@@@+@@@.. +...@      +.....@    ",
"$ +....@@#%$#$# ...@  %#+.@#$$.+.@@.@@$@@+.@@.@@#%$#$.....@@$  $",
"$#++...@######$+..@@#$##$#########$.@##$#@@#$#..@###.+.....@#$%%",
"#$++.@@@$%#%##+.....@$%#$$#$$##$%#$#$$$%%#########%$+......@%##$",
"%#.....@%#$#$#+.@...@##$%%$%%$#++@@#%#$#$#$##$##%#$#+......@####",
"$#++..@.@#$##+.@$+@@.@@###$%###.+..@#$$#$$#$#%$$#$#+........@%##",
"#$.+....@#%#+.@@#+@#..@$$#%#$#....@@#%%$#$%$$####.+...@.@...@@#$",
"#%+.....@$##.@#$#@#$##.@##$$$++@+..@#####$%$#$#$.+.@...@@@...@%$",
"$#+...@..@%##$$##@#$$#%$#%##+..@+@..@#$$#$##%$#+.@@@@..@#%++.@$#",
"#@..+.@#.@#$#$####$%$$###$$#.+@#+.@+.@%$%$%%#$#..@#$%+@$####.@##",
"@..$#@#$#.@##%$$%%##$###$#%#.@#$.@#+.@###$$$###@@$$##.@#%#$$+@#$",
"..$#$###$#.$%%%####$%%$$##%%#$$$#@$########$#$#$###%##$#$%%###%$",
"###%$$$#%#$$%#$##$$##$%###$$$%%#$##%$$#$$%##%$$###$$#$$###$##$$%",
"$#$####$$####$$$$$$##$%%%$$%$#####$###%%#####$$$$#$#$##$###$####",
"##$$$%%#$$%$%##$%####$$######$#$##$##$$#%%$$##%#%#$######$$%$$#$",
"%$%$######%$$####$%$$#$#%%##$##%$##%#%#$###$%%$$$##%$$#$%######$",
"$#$##$$%%$####$$##$#%%###$%%%%$####$$$#$#%########$$$%##$$#%##$#",
"#%%#$$#$%$$%$%#%%$$$%$%$$$%$$####%##$%#%##$$%%$$#$##$%$###$$$$##"};
